<svg xmlns="http://www.w3.org/2000/svg" viewBox="0 0 200 250"><path d="M101.40 132.00 L101.42 132.05 L101.43 132.11 L101.44 132.16 L101.45 132.22 L101.46 132.28 L101.46 132.34 L101.47 132.40 L101.47 132.46 L101.46 132.52 L101.46 132.58 L101.45 132.65 L101.45 132.71 L101.43 132.77 L101.42 132.84 L101.40 132.90 L101.38 132.97 L101.36 133.03 L101.34 133.09 L101.31 133.16 L101.28 133.22 L101.25 133.28 L101.22 133.35 L101.18 133.41 L101.14 133.47 L101.10 133.53 L101.05 133.59 L101.00 133.65 L100.95 133.70 L100.90 133.76 L100.84 133.81 L100.79 133.86 L100.73 133.91 L100.66 133.96 L100.60 134.00 L100.53 134.05 L100.46 134.09 L100.39 134.13 L100.32 134.17 L100.25 134.20 L100.17 134.23 L100.09 134.26 L100.01 134.29 L99.93 134.31 L99.85 134.33 L99.76 134.35 L99.68 134.36 L99.59 134.37 L99.50 134.38 L99.41 134.38 L99.32 134.39 L99.23 134.38 L99.14 134.38 L99.05 134.37 L98.96 134.35 L98.87 134.34 L98.78 134.32 L98.69 134.29 L98.60 134.27 L98.50 134.24 L98.41 134.20 L98.33 134.16 L98.24 134.12 L98.15 134.08 L98.06 134.03 L97.98 133.97 L97.89 133.92 L97.81 133.86 L97.73 133.80 L97.65 133.73 L97.58 133.66 L97.50 133.59 L97.43 133.51 L97.36 133.43 L97.29 133.35 L97.23 133.26 L97.16 133.17 L97.10 133.08 L97.05 132.99 L96.99 132.89 L96.94 132.79 L96.90 132.69 L96.85 132.58 L96.81 132.48 L96.78 132.37 L96.74 132.26 L96.71 132.15 L96.69 132.03 L96.67 131.92 L96.65 131.80 L96.64 131.68 L96.63 131.57 L96.63 131.45 L96.62 131.33 L96.63 131.21 L96.64 131.08 L96.65 130.96 L96.67 130.84 L96.69 130.72 L96.71 130.60 L96.74 130.48 L96.78 130.36 L96.82 130.24 L96.86 130.12 L96.91 130.01 L96.96 129.89 L97.02 129.78 L97.08 129.67 L97.15 129.56 L97.22 129.45 L97.29 129.35 L97.37 129.24 L97.45 129.14 L97.54 129.04 L97.63 128.95 L97.72 128.86 L97.82 128.77 L97.92 128.69 L98.02 128.61 L98.13 128.53 L98.24 128.45 L98.35 128.39 L98.47 128.32 L98.59 128.26 L98.71 128.20 L98.84 128.15 L98.97 128.10 L99.10 128.06 L99.23 128.02 L99.36 127.99 L99.50 127.96 L99.63 127.94 L99.77 127.93 L99.91 127.91 L100.05 127.91 L100.19 127.91 L100.33 127.91 L100.48 127.92 L100.62 127.94 L100.76 127.96 L100.90 127.99 L101.05 128.02 L101.19 128.06 L101.33 128.10 L101.47 128.15 L101.61 128.21 L101.74 128.27 L101.88 128.34 L102.01 128.41 L102.14 128.49 L102.27 128.57 L102.40 128.66 L102.52 128.75 L102.64 128.85 L102.76 128.95 L102.88 129.06 L102.99 129.18 L103.10 129.30 L103.20 129.42 L103.30 129.55 L103.40 129.68 L103.49 129.81 L103.58 129.96 L103.66 130.10 L103.74 130.25 L103.81 130.40 L103.88 130.56 L103.94 130.71 L104.00 130.88 L104.05 131.04 L104.10 131.21 L104.14 131.38 L104.17 131.55 L104.20 131.72 L104.22 131.90 L104.24 132.07 L104.25 132.25 L104.25 132.43 L104.25 132.61 L104.24 132.79 L104.23 132.97 L104.21 133.16 L104.18 133.34 L104.15 133.52 L104.11 133.70 L104.06 133.88 L104.01 134.06 L103.95 134.23 L103.88 134.41 L103.81 134.58 L103.73 134.75 L103.64 134.92 L103.55 135.09 L103.46 135.25 L103.35 135.41 L103.24 135.57 L103.13 135.73 L103.01 135.88 L102.88 136.02 L102.75 136.16 L102.61 136.30 L102.47 136.43 L102.32 136.56 L102.17 136.68 L102.01 136.80 L101.85 136.91 L101.68 137.02 L101.51 137.12 L101.34 137.21 L101.16 137.30 L100.98 137.38 L100.79 137.46 L100.60 137.52 L100.41 137.59 L100.22 137.64 L100.02 137.69 L99.82 137.73 L99.62 137.76 L99.42 137.78 L99.22 137.80 L99.01 137.81 L98.81 137.82 L98.60 137.81 L98.39 137.80 L98.19 137.78 L97.98 137.75 L97.78 137.71 L97.57 137.67 L97.37 137.62 L97.16 137.56 L96.96 137.49 L96.76 137.42 L96.56 137.33 L96.37 137.24 L96.18 137.15 L95.99 137.04 L95.80 136.93 L95.62 136.81 L95.44 136.68 L95.26 136.55 L95.09 136.41 L94.92 136.26 L94.76 136.11 L94.61 135.95 L94.45 135.78 L94.31 135.61 L94.17 135.43 L94.03 135.24 L93.90 135.06 L93.78 134.86 L93.67 134.66 L93.56 134.46 L93.45 134.25 L93.36 134.03 L93.27 133.82 L93.19 133.60 L93.12 133.37 L93.05 133.14 L93.00 132.91 L92.95 132.68 L92.91 132.45 L92.87 132.21 L92.85 131.97 L92.83 131.73 L92.82 131.49 L92.82 131.25 L92.83 131.00 L92.85 130.76 L92.87 130.52 L92.91 130.28 L92.95 130.03 L93.00 129.79 L93.06 129.56 L93.13 129.32 L93.21 129.09 L93.29 128.85 L93.38 128.62 L93.48 128.40 L93.59 128.17 L93.71 127.96 L93.84 127.74 L93.97 127.53 L94.11 127.32 L94.26 127.12 L94.42 126.93 L94.58 126.74 L94.75 126.55 L94.92 126.38 L95.11 126.20 L95.30 126.04 L95.49 125.88 L95.69 125.73 L95.90 125.59 L96.11 125.45 L96.33 125.32 L96.56 125.20 L96.78 125.09 L97.01 124.99 L97.25 124.90 L97.49 124.81 L97.73 124.73 L97.98 124.67 L98.23 124.61 L98.48 124.56 L98.74 124.52 L98.99 124.49 L99.25 124.47 L99.51 124.46 L99.77 124.46 L100.03 124.47 L100.29 124.49 L100.55 124.52 L100.81 124.56 L101.07 124.61 L101.32 124.66 L101.58 124.73 L101.83 124.81 L102.08 124.90 L102.33 125.00 L102.58 125.11 L102.82 125.23 L103.06 125.35 L103.30 125.49 L103.53 125.64 L103.75 125.79 L103.97 125.96 L104.19 126.13 L104.40 126.31 L104.61 126.50 L104.80 126.70 L105.00 126.90 L105.18 127.12 L105.36 127.34 L105.53 127.57 L105.69 127.80 L105.85 128.04 L105.99 128.29 L106.13 128.55 L106.26 128.81 L106.38 129.07 L106.49 129.34 L106.59 129.62 L106.69 129.90 L106.77 130.18 L106.85 130.47 L106.91 130.76 L106.96 131.05 L107.01 131.35 L107.04 131.65 L107.06 131.95 L107.08 132.25 L107.08 132.56 L107.07 132.86 L107.05 133.16 L107.02 133.47 L106.98 133.77 L106.93 134.08 L106.87 134.38 L106.80 134.68 L106.71 134.98 L106.62 135.27 L106.52 135.56 L106.40 135.85 L106.28 136.14 L106.15 136.42 L106.00 136.70 L105.85 136.97 L105.68 137.23 L105.51 137.50 L105.33 137.75 L105.13 138.00 L104.93 138.24 L104.72 138.48 L104.51 138.70 L104.28 138.92 L104.05 139.13 L103.80 139.34 L103.55 139.53 L103.30 139.72 L103.03 139.89 L102.76 140.06 L102.49 140.22 L102.20 140.37 L101.92 140.50 L101.62 140.63 L101.33 140.74 L101.02 140.85 L100.72 140.94 L100.41 141.02 L100.09 141.09 L99.78 141.15 L99.46 141.20 L99.14 141.24 L98.81 141.26 L98.49 141.27 L98.17 141.27 L97.84 141.26 L97.51 141.23 L97.19 141.20 L96.87 141.15 L96.54 141.09 L96.22 141.01 L95.90 140.93 L95.59 140.83 L95.27 140.72 L94.96 140.60 L94.65 140.47 L94.35 140.32 L94.05 140.17 L93.76 140.00 L93.47 139.82 L93.19 139.63 L92.92 139.43 L92.65 139.22 L92.39 139.00 L92.13 138.77 L91.89 138.52 L91.65 138.27 L91.42 138.01 L91.20 137.75" fill="none" stroke="#1B1915" stroke-width="3.90" stroke-linecap="round"/><path d="M109.96 132.00 L110.01 132.16 L110.06 132.31 L110.10 132.47 L110.15 132.64 L110.19 132.80 L110.24 132.96 L110.28 133.13 L110.32 133.30 L110.36 133.47 L110.39 133.64 L110.43 133.81 L110.46 133.98 L110.48 134.16 L110.51 134.33 L110.53 134.51 L110.55 134.68 L110.56 134.86 L110.57 135.04 L110.57 135.22 L110.57 135.40 L110.57 135.58 L110.56 135.75 L110.55 135.93 L110.52 136.11 L110.50 136.29 L110.47 136.46 L110.43 136.63 L110.39 136.81 L110.34 136.98 L110.28 137.14 L110.22 137.31 L110.15 137.47 L110.08 137.63 L110.00 137.78 L109.91 137.94 L109.82 138.08 L109.72 138.23 L109.61 138.37 L109.50 138.50 L109.39 138.63 L109.27 138.76 L109.14 138.88 L109.01 139.00 L108.87 139.11 L108.73 139.21 L108.59 139.31 L108.44 139.41 L108.29 139.50 L108.13 139.58 L107.97 139.66 L107.81 139.73 L107.64 139.80 L107.48 139.86 L107.31 139.91 L107.14 139.96 L106.97 140.01 L106.80 140.05 L106.63 140.09 L106.45 140.12 L106.28 140.15 L106.11 140.17 L105.94 140.19 L105.77 140.21 L105.60 140.22 L105.43 140.24 L105.26 140.24 L105.10 140.25 L104.93 140.26 L104.77 140.26 L104.61 140.26 L104.46 140.26 L104.30 140.27 L104.15 140.27 L104.00 140.27 L103.86 140.27 L103.71 140.28 L103.57 140.28 L103.44 140.29 L103.30 140.29 L103.17 140.30 L103.04 140.32 L102.91 140.33 L102.78 140.35 L102.66 140.37 L102.54 140.39 L102.42 140.42 L102.30 140.45 L102.18 140.48 L102.06 140.52 L101.95 140.56 L101.84 140.61 L101.72 140.65 L101.61 140.71 L101.50 140.76 L101.38 140.82 L101.27 140.88 L101.16 140.94 L101.04 141.01 L100.93 141.08 L100.81 141.16 L100.69 141.23 L100.57 141.31 L100.45 141.39 L100.33 141.47 L100.21 141.55 L100.08 141.63 L99.95 141.71 L99.82 141.80 L99.69 141.88 L99.56 141.96 L99.42 142.04 L99.28 142.12 L99.14 142.20 L99.00 142.28 L98.85 142.35 L98.70 142.43 L98.55 142.50 L98.40 142.56 L98.25 142.62 L98.09 142.68 L97.94 142.74 L97.78 142.79 L97.62 142.83 L97.46 142.87 L97.30 142.91 L97.13 142.94 L96.97 142.96 L96.81 142.98 L96.64 143.00 L96.48 143.01 L96.31 143.01 L96.15 143.00 L95.99 142.99 L95.83 142.98 L95.66 142.96 L95.50 142.93 L95.34 142.89 L95.19 142.85 L95.03 142.81 L94.88 142.76 L94.72 142.70 L94.57 142.64 L94.43 142.57 L94.28 142.50 L94.14 142.42 L93.99 142.34 L93.85 142.25 L93.72 142.16 L93.58 142.07 L93.45 141.97 L93.32 141.87 L93.20 141.76 L93.08 141.65 L92.95 141.54 L92.84 141.42 L92.72 141.31 L92.61 141.19 L92.50 141.06 L92.39 140.94 L92.28 140.81 L92.18 140.69 L92.08 140.56 L91.98 140.43 L91.88 140.29 L91.78 140.16 L91.69 140.03 L91.60 139.89 L91.51 139.76 L91.42 139.62 L91.33 139.49 L91.24 139.35 L91.16 139.21 L91.07 139.07 L90.99 138.93 L90.91 138.80 L90.83 138.66 L90.75 138.52 L90.67 138.38 L90.60 138.24 L90.52 138.10 L90.45 137.95 L90.38 137.81 L90.30 137.67 L90.23 137.53 L90.16 137.38 L90.10 137.24 L90.03 137.10 L89.97 136.95 L89.91 136.80 L89.85 136.66 L89.79 136.51 L89.73 136.36 L89.68 136.21 L89.63 136.06 L89.58 135.91 L89.53 135.76 L89.49 135.60 L89.45 135.45 L89.41 135.29 L89.38 135.14 L89.35 134.98 L89.32 134.83 L89.30 134.67 L89.28 134.51 L89.26 134.35 L89.25 134.19 L89.24 134.03 L89.24 133.87 L89.24 133.72 L89.24 133.56 L89.25 133.40 L89.27 133.24 L89.29 133.08 L89.31 132.92 L89.33 132.77 L89.36 132.61 L89.40 132.46 L89.44 132.30 L89.48 132.15 L89.53 132.00 L89.58 131.85 L89.63 131.70 L89.69 131.56 L89.75 131.41 L89.81 131.27 L89.88 131.13 L89.95 130.99 L90.02 130.85 L90.09 130.72 L90.16 130.58 L90.24 130.45 L90.32 130.32 L90.39 130.19 L90.47 130.07 L90.55 129.94 L90.63 129.82 L90.71 129.70 L90.79 129.58 L90.87 129.46 L90.95 129.35 L91.03 129.23 L91.11 129.12 L91.18 129.00 L91.26 128.89 L91.33 128.78 L91.40 128.67 L91.47 128.55 L91.53 128.44 L91.60 128.33 L91.66 128.21 L91.72 128.10 L91.77 127.98 L91.83 127.87 L91.88 127.75 L91.93 127.63 L91.97 127.50 L92.02 127.38 L92.06 127.25 L92.10 127.13 L92.14 127.00 L92.18 126.86 L92.21 126.73 L92.24 126.59 L92.27 126.44 L92.30 126.30 L92.33 126.15 L92.36 126.00 L92.39 125.85 L92.42 125.69 L92.45 125.53 L92.48 125.37 L92.51 125.21 L92.54 125.04 L92.57 124.87 L92.60 124.70 L92.64 124.52 L92.67 124.35 L92.71 124.17 L92.75 123.99 L92.80 123.81 L92.85 123.63 L92.90 123.45 L92.96 123.27 L93.01 123.09 L93.08 122.91 L93.14 122.73 L93.22 122.56 L93.29 122.38 L93.37 122.21 L93.46 122.04 L93.55 121.87 L93.64 121.71 L93.74 121.55 L93.85 121.39 L93.96 121.24 L94.07 121.09 L94.19 120.95 L94.32 120.81 L94.44 120.68 L94.58 120.55 L94.71 120.43 L94.86 120.32 L95.00 120.22 L95.15 120.12 L95.30 120.03 L95.46 119.94 L95.62 119.87 L95.78 119.80 L95.95 119.74 L96.11 119.69 L96.28 119.64 L96.45 119.61 L96.63 119.58 L96.80 119.56 L96.98 119.54 L97.15 119.54 L97.33 119.54 L97.50 119.55 L97.68 119.57 L97.86 119.59 L98.03 119.62 L98.21 119.66 L98.38 119.71 L98.55 119.76 L98.73 119.81 L98.90 119.87 L99.06 119.94 L99.23 120.01 L99.39 120.09 L99.56 120.17 L99.72 120.25 L99.87 120.34 L100.03 120.43 L100.18 120.52 L100.33 120.62 L100.48 120.72 L100.62 120.81 L100.77 120.92 L100.91 121.02 L101.05 121.12 L101.18 121.22 L101.31 121.33 L101.45 121.43 L101.58 121.53 L101.70 121.63 L101.83 121.74 L101.95 121.84 L102.07 121.94 L102.20 122.03 L102.32 122.13 L102.43 122.23 L102.55 122.32 L102.67 122.41 L102.78 122.50 L102.90 122.59 L103.01 122.68 L103.13 122.76 L103.24 122.85 L103.35 122.93 L103.47 123.01 L103.58 123.09 L103.69 123.16 L103.81 123.24 L103.92 123.31 L104.03 123.39 L104.15 123.46 L104.26 123.53 L104.38 123.60 L104.49 123.67 L104.61 123.75 L104.72 123.82 L104.84 123.89 L104.95 123.96 L105.07 124.03 L105.19 124.10 L105.30 124.18 L105.42 124.25 L105.53 124.33 L105.65 124.40 L105.76 124.48 L105.88 124.56 L105.99 124.64 L106.10 124.72 L106.21 124.81 L106.32 124.90 L106.43 124.98 L106.54 125.08 L106.64 125.17 L106.75 125.26 L106.85 125.36 L106.95 125.46 L107.05 125.56 L107.15 125.67 L107.24 125.77 L107.34 125.88 L107.43 125.99 L107.52 126.11 L107.60 126.22 L107.69 126.34 L107.77 126.46 L107.85 126.58 L107.93 126.70 L108.00 126.82 L108.07 126.95 L108.15 127.08 L108.21 127.20 L108.28 127.33 L108.34 127.46 L108.41 127.59 L108.47 127.73 L108.53 127.86 L108.58 127.99 L108.64 128.13 L108.69 128.26 L108.75 128.40 L108.80 128.54 L108.85 128.67 L108.90 128.81 L108.95 128.95 L109.00 129.09 L109.05 129.23 L109.10 129.37 L109.14 129.51 L109.19 129.65 L109.24 129.79 L109.28 129.93 L109.33 130.07 L109.38 130.21 L109.43 130.36 L109.47 130.50 L109.52 130.65 L109.57 130.79 L109.62 130.94 L109.67 131.09 L109.72 131.24 L109.77 131.39 L109.81 131.54 L109.86 131.69 L109.91 131.84 L109.96 132.00 Z" fill="none" stroke="#1B1915" stroke-width="3.64" stroke-linecap="round"/><path d="M113.46 132.00 L113.52 132.22 L113.58 132.43 L113.63 132.65 L113.69 132.88 L113.74 133.10 L113.79 133.32 L113.84 133.55 L113.88 133.78 L113.92 134.01 L113.96 134.24 L114.00 134.48 L114.03 134.71 L114.06 134.95 L114.09 135.19 L114.11 135.43 L114.13 135.67 L114.14 135.91 L114.14 136.15 L114.14 136.39 L114.14 136.63 L114.12 136.87 L114.11 137.12 L114.08 137.36 L114.05 137.60 L114.01 137.83 L113.96 138.07 L113.91 138.31 L113.85 138.54 L113.78 138.77 L113.71 139.00 L113.62 139.22 L113.53 139.44 L113.43 139.66 L113.32 139.87 L113.21 140.08 L113.09 140.29 L112.96 140.49 L112.82 140.68 L112.68 140.87 L112.53 141.05 L112.37 141.23 L112.21 141.40 L112.04 141.57 L111.86 141.73 L111.68 141.88 L111.49 142.02 L111.30 142.16 L111.10 142.29 L110.90 142.42 L110.69 142.54 L110.48 142.65 L110.27 142.75 L110.05 142.85 L109.84 142.94 L109.62 143.03 L109.39 143.11 L109.17 143.18 L108.94 143.25 L108.72 143.31 L108.49 143.37 L108.27 143.42 L108.04 143.47 L107.82 143.51 L107.60 143.55 L107.37 143.59 L107.15 143.62 L106.94 143.65 L106.72 143.68 L106.50 143.71 L106.29 143.73 L106.08 143.76 L105.87 143.78 L105.67 143.80 L105.47 143.82 L105.27 143.84 L105.07 143.87 L104.88 143.89 L104.69 143.92 L104.50 143.94 L104.32 143.97 L104.14 144.01 L103.96 144.04 L103.78 144.08 L103.60 144.12 L103.43 144.16 L103.26 144.21 L103.09 144.26 L102.92 144.32 L102.75 144.37 L102.59 144.44 L102.42 144.50 L102.26 144.57 L102.09 144.64 L101.93 144.72 L101.76 144.80 L101.60 144.88 L101.43 144.97 L101.26 145.06 L101.09 145.15 L100.92 145.24 L100.75 145.34 L100.58 145.44 L100.40 145.54 L100.23 145.64 L100.05 145.74 L99.86 145.84 L99.68 145.94 L99.49 146.04 L99.30 146.14 L99.11 146.24 L98.92 146.34 L98.72 146.44 L98.52 146.53 L98.32 146.62 L98.11 146.70 L97.90 146.79 L97.69 146.86 L97.48 146.94 L97.26 147.01 L97.05 147.07 L96.83 147.13 L96.61 147.18 L96.39 147.23 L96.16 147.27 L95.94 147.30 L95.72 147.33 L95.49 147.35 L95.27 147.36 L95.04 147.36 L94.82 147.36 L94.59 147.35 L94.37 147.33 L94.14 147.30 L93.92 147.27 L93.70 147.23 L93.48 147.18 L93.26 147.12 L93.05 147.06 L92.84 146.99 L92.63 146.91 L92.42 146.83 L92.21 146.73 L92.01 146.63 L91.81 146.53 L91.61 146.42 L91.42 146.30 L91.23 146.18 L91.04 146.05 L90.86 145.91 L90.68 145.77 L90.50 145.63 L90.33 145.48 L90.16 145.33 L90.00 145.17 L89.83 145.01 L89.67 144.85 L89.52 144.68 L89.37 144.51 L89.22 144.34 L89.07 144.17 L88.93 143.99 L88.79 143.81 L88.65 143.63 L88.51 143.45 L88.38 143.27 L88.25 143.08 L88.12 142.90 L88.00 142.71 L87.88 142.52 L87.76 142.33 L87.64 142.14 L87.52 141.95 L87.40 141.76 L87.29 141.57 L87.18 141.38 L87.07 141.19 L86.96 140.99 L86.86 140.80 L86.75 140.60 L86.65 140.41 L86.55 140.21 L86.45 140.02 L86.35 139.82 L86.26 139.62 L86.16 139.42 L86.07 139.22 L85.98 139.02 L85.90 138.82 L85.81 138.62 L85.73 138.42 L85.65 138.21 L85.58 138.01 L85.50 137.80 L85.43 137.59 L85.37 137.38 L85.30 137.17 L85.24 136.96 L85.19 136.75 L85.14 136.54 L85.09 136.32 L85.05 136.11 L85.01 135.89 L84.98 135.67 L84.95 135.46 L84.93 135.24 L84.91 135.02 L84.89 134.80 L84.89 134.58 L84.88 134.37 L84.89 134.15 L84.90 133.93 L84.91 133.71 L84.93 133.49 L84.95 133.28 L84.98 133.06 L85.02 132.85 L85.06 132.63 L85.10 132.42 L85.15 132.21 L85.21 132.00 L85.27 131.79 L85.33 131.59 L85.40 131.38 L85.48 131.18 L85.55 130.98 L85.63 130.78 L85.72 130.59 L85.80 130.40 L85.89 130.21 L85.98 130.02 L86.08 129.83 L86.17 129.65 L86.27 129.47 L86.37 129.29 L86.47 129.11 L86.56 128.94 L86.66 128.76 L86.76 128.59 L86.86 128.42 L86.96 128.25 L87.06 128.09 L87.16 127.92 L87.25 127.76 L87.35 127.59 L87.44 127.43 L87.53 127.27 L87.62 127.10 L87.70 126.94 L87.79 126.77 L87.87 126.61 L87.95 126.44 L88.02 126.28 L88.10 126.11 L88.17 125.94 L88.23 125.76 L88.30 125.59 L88.36 125.41 L88.42 125.23 L88.48 125.05 L88.54 124.86 L88.59 124.67 L88.64 124.48 L88.69 124.29 L88.74 124.09 L88.79 123.89 L88.84 123.68 L88.89 123.47 L88.93 123.26 L88.98 123.05 L89.03 122.83 L89.08 122.60 L89.13 122.38 L89.18 122.15 L89.23 121.92 L89.29 121.68 L89.35 121.45 L89.41 121.21 L89.47 120.97 L89.54 120.73 L89.61 120.49 L89.69 120.25 L89.77 120.00 L89.85 119.76 L89.94 119.52 L90.04 119.28 L90.14 119.04 L90.25 118.80 L90.36 118.56 L90.48 118.33 L90.60 118.10 L90.73 117.87 L90.87 117.65 L91.01 117.43 L91.16 117.22 L91.32 117.02 L91.48 116.82 L91.65 116.62 L91.82 116.44 L92.00 116.26 L92.19 116.08 L92.38 115.92 L92.58 115.77 L92.78 115.62 L92.99 115.48 L93.20 115.35 L93.41 115.24 L93.63 115.13 L93.86 115.03 L94.09 114.94 L94.32 114.86 L94.55 114.79 L94.79 114.73 L95.03 114.68 L95.27 114.65 L95.51 114.62 L95.75 114.60 L96.00 114.59 L96.24 114.59 L96.49 114.60 L96.73 114.62 L96.98 114.65 L97.22 114.69 L97.46 114.73 L97.70 114.79 L97.94 114.85 L98.18 114.92 L98.42 115.00 L98.65 115.08 L98.88 115.17 L99.11 115.27 L99.34 115.37 L99.56 115.47 L99.78 115.58 L100.00 115.70 L100.21 115.82 L100.43 115.94 L100.63 116.06 L100.84 116.19 L101.04 116.32 L101.24 116.45 L101.44 116.58 L101.63 116.71 L101.82 116.85 L102.01 116.98 L102.19 117.12 L102.38 117.25 L102.56 117.39 L102.74 117.52 L102.91 117.65 L103.09 117.78 L103.26 117.91 L103.43 118.04 L103.60 118.17 L103.77 118.30 L103.93 118.42 L104.10 118.54 L104.27 118.67 L104.43 118.79 L104.59 118.90 L104.76 119.02 L104.92 119.14 L105.08 119.25 L105.24 119.37 L105.40 119.48 L105.57 119.59 L105.73 119.70 L105.89 119.81 L106.05 119.92 L106.21 120.03 L106.37 120.14 L106.53 120.25 L106.69 120.36 L106.85 120.47 L107.01 120.59 L107.17 120.70 L107.33 120.81 L107.48 120.93 L107.64 121.05 L107.80 121.16 L107.95 121.29 L108.11 121.41 L108.26 121.53 L108.41 121.66 L108.56 121.79 L108.71 121.92 L108.86 122.06 L109.00 122.19 L109.14 122.33 L109.28 122.48 L109.42 122.62 L109.55 122.77 L109.69 122.92 L109.82 123.07 L109.94 123.23 L110.07 123.39 L110.19 123.55 L110.31 123.71 L110.42 123.88 L110.53 124.05 L110.64 124.22 L110.75 124.39 L110.85 124.57 L110.95 124.74 L111.05 124.92 L111.14 125.10 L111.23 125.29 L111.32 125.47 L111.40 125.65 L111.49 125.84 L111.57 126.03 L111.65 126.22 L111.72 126.40 L111.79 126.59 L111.87 126.79 L111.94 126.98 L112.00 127.17 L112.07 127.36 L112.14 127.56 L112.20 127.75 L112.26 127.94 L112.33 128.14 L112.39 128.34 L112.45 128.53 L112.51 128.73 L112.57 128.93 L112.63 129.12 L112.69 129.32 L112.75 129.52 L112.81 129.72 L112.87 129.92 L112.93 130.12 L112.99 130.33 L113.05 130.53 L113.11 130.74 L113.17 130.94 L113.23 131.15 L113.29 131.36 L113.35 131.57 L113.41 131.79 L113.46 132.00 Z" fill="none" stroke="#1B1915" stroke-width="3.77" stroke-linecap="round"/><path d="M117.85 132.00 L117.91 132.29 L117.98 132.58 L118.04 132.87 L118.10 133.17 L118.16 133.46 L118.22 133.76 L118.27 134.06 L118.32 134.37 L118.37 134.67 L118.41 134.98 L118.45 135.29 L118.49 135.60 L118.51 135.91 L118.54 136.23 L118.56 136.54 L118.57 136.86 L118.58 137.18 L118.58 137.50 L118.57 137.81 L118.56 138.13 L118.53 138.45 L118.50 138.77 L118.47 139.08 L118.42 139.40 L118.37 139.71 L118.30 140.03 L118.23 140.34 L118.15 140.65 L118.06 140.95 L117.96 141.25 L117.85 141.55 L117.73 141.84 L117.60 142.13 L117.47 142.42 L117.32 142.70 L117.17 142.97 L117.00 143.24 L116.83 143.50 L116.65 143.75 L116.46 144.00 L116.26 144.25 L116.05 144.48 L115.83 144.71 L115.61 144.93 L115.38 145.14 L115.15 145.34 L114.90 145.54 L114.66 145.73 L114.40 145.91 L114.14 146.08 L113.88 146.25 L113.61 146.40 L113.34 146.55 L113.06 146.69 L112.79 146.82 L112.50 146.95 L112.22 147.07 L111.94 147.18 L111.65 147.29 L111.36 147.39 L111.08 147.48 L110.79 147.57 L110.50 147.65 L110.22 147.73 L109.93 147.80 L109.65 147.87 L109.37 147.94 L109.09 148.00 L108.81 148.06 L108.53 148.12 L108.26 148.18 L107.99 148.23 L107.72 148.29 L107.45 148.34 L107.19 148.39 L106.93 148.45 L106.68 148.50 L106.42 148.56 L106.17 148.62 L105.92 148.68 L105.67 148.74 L105.43 148.80 L105.19 148.87 L104.95 148.94 L104.71 149.01 L104.47 149.09 L104.24 149.17 L104.01 149.25 L103.77 149.34 L103.54 149.43 L103.31 149.53 L103.08 149.63 L102.85 149.73 L102.62 149.83 L102.38 149.94 L102.15 150.05 L101.92 150.16 L101.68 150.28 L101.44 150.40 L101.20 150.52 L100.96 150.64 L100.72 150.76 L100.47 150.88 L100.22 151.01 L99.97 151.13 L99.72 151.25 L99.46 151.37 L99.20 151.50 L98.93 151.61 L98.67 151.73 L98.40 151.84 L98.12 151.95 L97.85 152.06 L97.57 152.16 L97.29 152.25 L97.00 152.34 L96.72 152.43 L96.43 152.51 L96.13 152.58 L95.84 152.64 L95.54 152.70 L95.25 152.75 L94.95 152.79 L94.65 152.83 L94.35 152.85 L94.05 152.87 L93.74 152.87 L93.44 152.87 L93.14 152.86 L92.84 152.84 L92.54 152.81 L92.24 152.76 L91.94 152.71 L91.65 152.65 L91.35 152.58 L91.06 152.51 L90.77 152.42 L90.49 152.32 L90.21 152.21 L89.93 152.10 L89.65 151.97 L89.38 151.84 L89.11 151.70 L88.84 151.55 L88.58 151.39 L88.33 151.23 L88.07 151.05 L87.83 150.87 L87.58 150.69 L87.34 150.50 L87.11 150.30 L86.88 150.10 L86.66 149.89 L86.44 149.68 L86.22 149.46 L86.01 149.24 L85.80 149.01 L85.60 148.78 L85.40 148.55 L85.20 148.32 L85.01 148.08 L84.82 147.84 L84.64 147.59 L84.46 147.35 L84.29 147.10 L84.11 146.85 L83.94 146.60 L83.78 146.35 L83.61 146.10 L83.45 145.84 L83.29 145.59 L83.14 145.33 L82.99 145.07 L82.84 144.82 L82.69 144.56 L82.54 144.30 L82.40 144.04 L82.26 143.78 L82.12 143.52 L81.99 143.25 L81.86 142.99 L81.73 142.73 L81.60 142.46 L81.47 142.19 L81.35 141.93 L81.23 141.66 L81.12 141.39 L81.00 141.12 L80.89 140.85 L80.79 140.57 L80.68 140.30 L80.58 140.02 L80.49 139.75 L80.40 139.47 L80.31 139.19 L80.23 138.91 L80.15 138.63 L80.08 138.34 L80.01 138.06 L79.95 137.77 L79.89 137.48 L79.84 137.20 L79.80 136.91 L79.76 136.62 L79.72 136.33 L79.70 136.04 L79.68 135.74 L79.66 135.45 L79.65 135.16 L79.65 134.87 L79.66 134.58 L79.67 134.29 L79.69 134.00 L79.72 133.71 L79.75 133.42 L79.79 133.13 L79.84 132.85 L79.89 132.56 L79.95 132.28 L80.01 132.00 L80.08 131.72 L80.16 131.44 L80.24 131.17 L80.32 130.90 L80.41 130.63 L80.51 130.36 L80.61 130.10 L80.71 129.84 L80.81 129.58 L80.92 129.32 L81.03 129.07 L81.15 128.82 L81.26 128.57 L81.38 128.32 L81.50 128.08 L81.62 127.84 L81.74 127.60 L81.86 127.36 L81.98 127.13 L82.10 126.89 L82.22 126.66 L82.34 126.43 L82.46 126.20 L82.57 125.97 L82.69 125.74 L82.80 125.51 L82.91 125.28 L83.02 125.06 L83.12 124.83 L83.22 124.59 L83.32 124.36 L83.42 124.13 L83.51 123.89 L83.61 123.66 L83.70 123.42 L83.78 123.17 L83.87 122.93 L83.95 122.68 L84.03 122.43 L84.10 122.17 L84.18 121.91 L84.25 121.65 L84.32 121.38 L84.40 121.11 L84.47 120.84 L84.54 120.56 L84.61 120.28 L84.68 119.99 L84.75 119.70 L84.82 119.40 L84.90 119.10 L84.97 118.80 L85.05 118.50 L85.13 118.19 L85.22 117.88 L85.30 117.56 L85.40 117.25 L85.49 116.93 L85.59 116.61 L85.70 116.29 L85.81 115.96 L85.93 115.64 L86.05 115.32 L86.18 115.00 L86.32 114.68 L86.46 114.36 L86.61 114.05 L86.77 113.73 L86.94 113.43 L87.11 113.12 L87.29 112.82 L87.48 112.53 L87.68 112.24 L87.89 111.96 L88.10 111.68 L88.32 111.41 L88.55 111.15 L88.79 110.90 L89.03 110.66 L89.29 110.43 L89.54 110.21 L89.81 110.00 L90.08 109.80 L90.36 109.61 L90.65 109.43 L90.94 109.26 L91.24 109.11 L91.54 108.97 L91.85 108.84 L92.16 108.72 L92.47 108.62 L92.79 108.53 L93.11 108.45 L93.44 108.38 L93.76 108.33 L94.09 108.29 L94.42 108.27 L94.75 108.25 L95.08 108.25 L95.42 108.26 L95.75 108.28 L96.08 108.31 L96.41 108.36 L96.74 108.41 L97.06 108.48 L97.39 108.55 L97.71 108.64 L98.03 108.73 L98.35 108.83 L98.67 108.94 L98.98 109.06 L99.29 109.19 L99.59 109.32 L99.89 109.46 L100.19 109.60 L100.49 109.75 L100.78 109.90 L101.06 110.06 L101.35 110.22 L101.63 110.39 L101.90 110.55 L102.17 110.72 L102.44 110.90 L102.71 111.07 L102.97 111.24 L103.22 111.42 L103.48 111.60 L103.73 111.77 L103.98 111.95 L104.22 112.13 L104.47 112.30 L104.71 112.48 L104.95 112.65 L105.18 112.83 L105.42 113.00 L105.65 113.17 L105.88 113.34 L106.11 113.51 L106.33 113.68 L106.56 113.85 L106.79 114.02 L107.01 114.18 L107.23 114.35 L107.45 114.51 L107.67 114.68 L107.89 114.84 L108.11 115.01 L108.33 115.17 L108.55 115.33 L108.77 115.50 L108.98 115.66 L109.20 115.83 L109.41 116.00 L109.62 116.17 L109.83 116.34 L110.04 116.51 L110.25 116.68 L110.46 116.86 L110.67 117.03 L110.87 117.21 L111.07 117.40 L111.27 117.58 L111.47 117.77 L111.66 117.96 L111.86 118.15 L112.04 118.35 L112.23 118.55 L112.42 118.75 L112.60 118.96 L112.77 119.17 L112.95 119.38 L113.12 119.59 L113.28 119.81 L113.45 120.03 L113.61 120.26 L113.76 120.49 L113.91 120.72 L114.06 120.95 L114.20 121.18 L114.34 121.42 L114.48 121.66 L114.61 121.91 L114.74 122.15 L114.86 122.40 L114.98 122.65 L115.09 122.90 L115.21 123.15 L115.31 123.41 L115.42 123.66 L115.52 123.92 L115.62 124.18 L115.72 124.43 L115.81 124.69 L115.90 124.95 L115.99 125.22 L116.08 125.48 L116.16 125.74 L116.24 126.00 L116.32 126.27 L116.40 126.53 L116.48 126.80 L116.56 127.06 L116.63 127.33 L116.71 127.60 L116.78 127.86 L116.85 128.13 L116.93 128.40 L117.00 128.67 L117.07 128.94 L117.14 129.21 L117.22 129.48 L117.29 129.76 L117.36 130.03 L117.43 130.31 L117.50 130.59 L117.57 130.86 L117.64 131.15 L117.71 131.43 L117.78 131.71 L117.85 132.00 Z" fill="none" stroke="#1B1915" stroke-width="3.90" stroke-linecap="round"/><path d="M123.27 132.00 L123.35 132.38 L123.42 132.76 L123.49 133.14 L123.56 133.52 L123.63 133.91 L123.69 134.30 L123.75 134.69 L123.80 135.08 L123.85 135.48 L123.90 135.88 L123.93 136.28 L123.97 136.68 L124.00 137.08 L124.02 137.49 L124.03 137.90 L124.04 138.30 L124.04 138.71 L124.03 139.12 L124.01 139.53 L123.99 139.94 L123.96 140.35 L123.91 140.76 L123.86 141.17 L123.80 141.58 L123.72 141.99 L123.64 142.39 L123.54 142.79 L123.44 143.19 L123.32 143.58 L123.19 143.97 L123.06 144.36 L122.91 144.74 L122.75 145.12 L122.57 145.49 L122.39 145.86 L122.20 146.22 L121.99 146.57 L121.78 146.91 L121.55 147.25 L121.31 147.58 L121.07 147.90 L120.81 148.22 L120.54 148.52 L120.27 148.82 L119.99 149.11 L119.70 149.39 L119.40 149.66 L119.09 149.92 L118.78 150.17 L118.46 150.41 L118.13 150.64 L117.80 150.87 L117.46 151.08 L117.12 151.29 L116.78 151.48 L116.43 151.67 L116.08 151.85 L115.72 152.02 L115.37 152.19 L115.01 152.34 L114.65 152.49 L114.29 152.64 L113.93 152.77 L113.57 152.90 L113.21 153.03 L112.86 153.15 L112.50 153.27 L112.14 153.38 L111.79 153.49 L111.44 153.59 L111.09 153.70 L110.74 153.80 L110.40 153.90 L110.05 154.00 L109.71 154.10 L109.38 154.20 L109.04 154.29 L108.71 154.39 L108.38 154.50 L108.05 154.60 L107.73 154.70 L107.40 154.81 L107.08 154.92 L106.76 155.03 L106.44 155.14 L106.13 155.26 L105.81 155.38 L105.49 155.50 L105.18 155.63 L104.87 155.75 L104.55 155.89 L104.24 156.02 L103.92 156.16 L103.60 156.30 L103.29 156.44 L102.97 156.59 L102.65 156.73 L102.32 156.88 L102.00 157.03 L101.67 157.18 L101.34 157.34 L101.01 157.49 L100.67 157.64 L100.33 157.79 L99.99 157.93 L99.64 158.08 L99.29 158.22 L98.94 158.37 L98.58 158.50 L98.22 158.63 L97.86 158.76 L97.49 158.89 L97.12 159.00 L96.75 159.11 L96.37 159.22 L95.99 159.31 L95.61 159.40 L95.22 159.48 L94.83 159.55 L94.44 159.61 L94.05 159.66 L93.66 159.70 L93.26 159.74 L92.87 159.76 L92.47 159.76 L92.07 159.76 L91.68 159.75 L91.28 159.72 L90.89 159.69 L90.49 159.64 L90.10 159.58 L89.71 159.50 L89.32 159.42 L88.94 159.32 L88.56 159.21 L88.18 159.09 L87.80 158.96 L87.43 158.82 L87.06 158.66 L86.70 158.50 L86.34 158.32 L85.98 158.14 L85.64 157.94 L85.29 157.73 L84.95 157.52 L84.62 157.29 L84.29 157.06 L83.97 156.81 L83.66 156.56 L83.34 156.31 L83.04 156.04 L82.74 155.77 L82.45 155.49 L82.16 155.21 L81.88 154.92 L81.61 154.62 L81.34 154.32 L81.07 154.02 L80.81 153.71 L80.56 153.40 L80.31 153.09 L80.07 152.77 L79.83 152.45 L79.60 152.12 L79.37 151.80 L79.14 151.47 L78.92 151.14 L78.71 150.81 L78.50 150.47 L78.29 150.14 L78.08 149.80 L77.88 149.46 L77.68 149.13 L77.49 148.79 L77.30 148.44 L77.11 148.10 L76.93 147.76 L76.75 147.42 L76.57 147.07 L76.40 146.73 L76.23 146.38 L76.06 146.03 L75.90 145.68 L75.74 145.33 L75.58 144.98 L75.43 144.63 L75.28 144.27 L75.14 143.92 L75.00 143.56 L74.86 143.20 L74.73 142.84 L74.60 142.48 L74.48 142.12 L74.37 141.75 L74.25 141.39 L74.15 141.02 L74.05 140.65 L73.96 140.28 L73.87 139.91 L73.79 139.53 L73.72 139.16 L73.65 138.78 L73.59 138.41 L73.54 138.03 L73.49 137.65 L73.46 137.27 L73.43 136.89 L73.40 136.51 L73.39 136.13 L73.39 135.75 L73.39 135.37 L73.40 134.99 L73.42 134.61 L73.44 134.23 L73.48 133.86 L73.52 133.48 L73.57 133.11 L73.63 132.74 L73.70 132.37 L73.77 132.00 L73.85 131.63 L73.94 131.27 L74.03 130.91 L74.13 130.55 L74.23 130.20 L74.34 129.85 L74.46 129.50 L74.57 129.15 L74.70 128.81 L74.82 128.47 L74.95 128.13 L75.09 127.80 L75.22 127.46 L75.36 127.14 L75.50 126.81 L75.64 126.49 L75.78 126.17 L75.93 125.85 L76.07 125.53 L76.21 125.21 L76.35 124.90 L76.50 124.59 L76.64 124.28 L76.78 123.97 L76.91 123.65 L77.05 123.34 L77.18 123.03 L77.31 122.72 L77.44 122.41 L77.57 122.10 L77.69 121.78 L77.81 121.46 L77.93 121.14 L78.05 120.82 L78.16 120.50 L78.27 120.17 L78.38 119.84 L78.49 119.50 L78.59 119.16 L78.69 118.82 L78.79 118.47 L78.89 118.12 L78.99 117.77 L79.09 117.40 L79.19 117.04 L79.29 116.67 L79.38 116.29 L79.48 115.91 L79.58 115.53 L79.69 115.14 L79.79 114.74 L79.90 114.35 L80.01 113.94 L80.13 113.54 L80.25 113.13 L80.37 112.72 L80.51 112.30 L80.64 111.89 L80.78 111.47 L80.93 111.05 L81.09 110.63 L81.25 110.21 L81.42 109.79 L81.60 109.37 L81.79 108.96 L81.99 108.54 L82.20 108.13 L82.41 107.72 L82.64 107.32 L82.87 106.92 L83.12 106.53 L83.37 106.15 L83.64 105.77 L83.91 105.40 L84.20 105.04 L84.50 104.68 L84.80 104.34 L85.12 104.01 L85.44 103.69 L85.77 103.38 L86.12 103.08 L86.47 102.80 L86.83 102.53 L87.20 102.27 L87.58 102.03 L87.96 101.80 L88.35 101.59 L88.75 101.39 L89.16 101.21 L89.57 101.04 L89.98 100.89 L90.40 100.76 L90.83 100.64 L91.25 100.54 L91.69 100.45 L92.12 100.38 L92.56 100.33 L93.00 100.29 L93.44 100.27 L93.88 100.26 L94.32 100.27 L94.76 100.29 L95.20 100.33 L95.64 100.38 L96.07 100.44 L96.51 100.52 L96.94 100.61 L97.37 100.71 L97.80 100.82 L98.22 100.95 L98.64 101.08 L99.06 101.23 L99.47 101.38 L99.88 101.55 L100.28 101.72 L100.68 101.90 L101.08 102.09 L101.47 102.28 L101.86 102.48 L102.24 102.69 L102.61 102.90 L102.98 103.11 L103.35 103.33 L103.71 103.55 L104.07 103.77 L104.42 104.00 L104.77 104.23 L105.12 104.46 L105.46 104.69 L105.79 104.93 L106.13 105.16 L106.45 105.40 L106.78 105.63 L107.10 105.87 L107.42 106.10 L107.74 106.34 L108.05 106.58 L108.36 106.81 L108.67 107.05 L108.97 107.28 L109.28 107.52 L109.58 107.75 L109.88 107.99 L110.17 108.22 L110.47 108.45 L110.76 108.69 L111.05 108.92 L111.34 109.16 L111.63 109.40 L111.91 109.64 L112.19 109.87 L112.47 110.11 L112.75 110.36 L113.03 110.60 L113.30 110.85 L113.58 111.09 L113.85 111.34 L114.11 111.60 L114.38 111.85 L114.64 112.11 L114.90 112.37 L115.15 112.63 L115.40 112.90 L115.65 113.17 L115.89 113.44 L116.14 113.72 L116.37 114.00 L116.60 114.29 L116.83 114.57 L117.06 114.87 L117.27 115.16 L117.49 115.46 L117.70 115.76 L117.90 116.07 L118.10 116.38 L118.29 116.69 L118.48 117.00 L118.67 117.32 L118.85 117.64 L119.02 117.97 L119.19 118.29 L119.35 118.62 L119.51 118.95 L119.66 119.29 L119.81 119.62 L119.96 119.96 L120.10 120.30 L120.23 120.64 L120.36 120.98 L120.49 121.32 L120.61 121.67 L120.73 122.01 L120.84 122.36 L120.95 122.71 L121.06 123.05 L121.17 123.40 L121.27 123.75 L121.37 124.10 L121.47 124.45 L121.57 124.80 L121.66 125.15 L121.75 125.51 L121.85 125.86 L121.94 126.21 L122.02 126.56 L122.11 126.92 L122.20 127.27 L122.29 127.63 L122.37 127.98 L122.46 128.34 L122.54 128.70 L122.63 129.06 L122.71 129.42 L122.79 129.78 L122.87 130.15 L122.96 130.51 L123.04 130.88 L123.12 131.25 L123.20 131.63 L123.27 132.00 Z" fill="none" stroke="#1B1915" stroke-width="4.03" stroke-linecap="round"/><path d="M129.88 132.00 L129.97 132.48 L130.05 132.97 L130.13 133.46 L130.20 133.95 L130.27 134.44 L130.34 134.94 L130.40 135.44 L130.46 135.94 L130.51 136.44 L130.55 136.95 L130.59 137.46 L130.62 137.97 L130.65 138.48 L130.66 139.00 L130.67 139.51 L130.67 140.03 L130.66 140.55 L130.64 141.07 L130.61 141.59 L130.58 142.11 L130.53 142.63 L130.46 143.15 L130.39 143.67 L130.31 144.19 L130.21 144.70 L130.10 145.21 L129.98 145.72 L129.85 146.23 L129.70 146.73 L129.54 147.23 L129.37 147.72 L129.18 148.21 L128.98 148.69 L128.77 149.17 L128.54 149.64 L128.31 150.10 L128.05 150.56 L127.79 151.00 L127.51 151.44 L127.22 151.87 L126.92 152.29 L126.61 152.70 L126.29 153.10 L125.95 153.49 L125.61 153.88 L125.25 154.25 L124.89 154.61 L124.52 154.96 L124.14 155.30 L123.75 155.63 L123.35 155.95 L122.95 156.25 L122.53 156.55 L122.12 156.84 L121.70 157.12 L121.27 157.38 L120.84 157.64 L120.41 157.89 L119.97 158.13 L119.53 158.36 L119.09 158.58 L118.65 158.80 L118.20 159.01 L117.76 159.21 L117.31 159.40 L116.87 159.59 L116.42 159.77 L115.98 159.95 L115.54 160.13 L115.10 160.30 L114.66 160.46 L114.22 160.63 L113.78 160.79 L113.35 160.95 L112.91 161.11 L112.48 161.27 L112.06 161.42 L111.63 161.58 L111.20 161.74 L110.78 161.90 L110.36 162.06 L109.94 162.22 L109.52 162.38 L109.10 162.54 L108.69 162.71 L108.27 162.88 L107.85 163.05 L107.44 163.22 L107.02 163.40 L106.61 163.58 L106.19 163.76 L105.77 163.94 L105.35 164.12 L104.93 164.31 L104.51 164.49 L104.08 164.68 L103.66 164.87 L103.23 165.06 L102.79 165.24 L102.36 165.43 L101.92 165.62 L101.47 165.80 L101.02 165.98 L100.57 166.16 L100.12 166.34 L99.66 166.51 L99.19 166.68 L98.73 166.84 L98.25 167.00 L97.78 167.15 L97.30 167.29 L96.81 167.43 L96.33 167.55 L95.84 167.67 L95.34 167.78 L94.84 167.88 L94.34 167.96 L93.84 168.04 L93.33 168.11 L92.83 168.16 L92.32 168.20 L91.81 168.22 L91.30 168.24 L90.78 168.24 L90.27 168.22 L89.76 168.20 L89.25 168.15 L88.74 168.10 L88.23 168.03 L87.73 167.94 L87.22 167.84 L86.72 167.72 L86.23 167.59 L85.73 167.45 L85.24 167.29 L84.76 167.11 L84.28 166.93 L83.80 166.72 L83.33 166.51 L82.87 166.28 L82.41 166.04 L81.96 165.78 L81.51 165.52 L81.07 165.24 L80.64 164.95 L80.22 164.65 L79.80 164.34 L79.39 164.02 L78.99 163.68 L78.59 163.34 L78.20 163.00 L77.82 162.64 L77.45 162.28 L77.09 161.90 L76.73 161.53 L76.38 161.14 L76.03 160.75 L75.70 160.36 L75.37 159.96 L75.04 159.55 L74.73 159.14 L74.42 158.73 L74.11 158.31 L73.81 157.89 L73.52 157.47 L73.24 157.04 L72.95 156.62 L72.68 156.19 L72.41 155.75 L72.15 155.32 L71.89 154.89 L71.63 154.45 L71.38 154.01 L71.14 153.57 L70.89 153.13 L70.66 152.69 L70.43 152.25 L70.20 151.80 L69.97 151.36 L69.76 150.91 L69.54 150.46 L69.33 150.01 L69.13 149.56 L68.93 149.11 L68.73 148.65 L68.54 148.20 L68.35 147.74 L68.17 147.28 L68.00 146.82 L67.83 146.36 L67.66 145.90 L67.50 145.43 L67.35 144.97 L67.21 144.50 L67.07 144.03 L66.93 143.56 L66.81 143.08 L66.69 142.61 L66.58 142.13 L66.48 141.65 L66.39 141.17 L66.30 140.69 L66.22 140.20 L66.16 139.72 L66.10 139.24 L66.05 138.75 L66.01 138.26 L65.98 137.78 L65.95 137.29 L65.94 136.81 L65.94 136.32 L65.95 135.83 L65.96 135.35 L65.99 134.87 L66.03 134.38 L66.07 133.90 L66.13 133.42 L66.19 132.95 L66.27 132.47 L66.35 132.00 L66.44 131.53 L66.54 131.06 L66.64 130.60 L66.75 130.14 L66.87 129.68 L66.99 129.22 L67.12 128.77 L67.26 128.32 L67.40 127.88 L67.55 127.44 L67.70 127.00 L67.85 126.56 L68.01 126.13 L68.16 125.70 L68.33 125.27 L68.49 124.85 L68.66 124.43 L68.82 124.01 L68.99 123.59 L69.16 123.18 L69.32 122.76 L69.49 122.35 L69.65 121.94 L69.82 121.53 L69.98 121.11 L70.14 120.70 L70.30 120.29 L70.46 119.88 L70.62 119.46 L70.77 119.05 L70.92 118.63 L71.07 118.21 L71.21 117.79 L71.36 117.36 L71.50 116.93 L71.64 116.50 L71.77 116.06 L71.91 115.62 L72.04 115.17 L72.17 114.72 L72.30 114.27 L72.43 113.80 L72.56 113.34 L72.69 112.86 L72.83 112.39 L72.96 111.90 L73.09 111.41 L73.22 110.92 L73.36 110.42 L73.50 109.91 L73.65 109.40 L73.80 108.89 L73.95 108.37 L74.11 107.85 L74.27 107.32 L74.44 106.79 L74.62 106.25 L74.81 105.72 L75.00 105.18 L75.20 104.64 L75.41 104.10 L75.63 103.56 L75.86 103.02 L76.10 102.49 L76.36 101.95 L76.62 101.42 L76.89 100.89 L77.18 100.37 L77.48 99.85 L77.79 99.34 L78.11 98.84 L78.45 98.34 L78.79 97.85 L79.15 97.37 L79.53 96.90 L79.91 96.45 L80.31 96.00 L80.72 95.57 L81.14 95.15 L81.58 94.75 L82.02 94.36 L82.48 93.99 L82.95 93.63 L83.42 93.29 L83.91 92.96 L84.41 92.66 L84.92 92.37 L85.43 92.10 L85.96 91.85 L86.49 91.62 L87.02 91.41 L87.57 91.22 L88.12 91.05 L88.67 90.90 L89.23 90.77 L89.80 90.65 L90.37 90.56 L90.94 90.49 L91.51 90.44 L92.08 90.41 L92.66 90.39 L93.23 90.40 L93.81 90.42 L94.38 90.46 L94.95 90.52 L95.52 90.60 L96.09 90.69 L96.66 90.80 L97.22 90.92 L97.78 91.06 L98.33 91.22 L98.88 91.38 L99.43 91.56 L99.97 91.76 L100.51 91.96 L101.04 92.18 L101.56 92.40 L102.08 92.64 L102.59 92.88 L103.10 93.13 L103.60 93.39 L104.10 93.66 L104.59 93.93 L105.07 94.21 L105.55 94.50 L106.02 94.79 L106.48 95.08 L106.95 95.38 L107.40 95.68 L107.85 95.99 L108.29 96.29 L108.73 96.60 L109.17 96.91 L109.59 97.23 L110.02 97.54 L110.44 97.86 L110.85 98.17 L111.26 98.49 L111.67 98.81 L112.07 99.13 L112.47 99.45 L112.87 99.78 L113.26 100.10 L113.65 100.42 L114.03 100.75 L114.41 101.07 L114.79 101.40 L115.16 101.73 L115.53 102.06 L115.90 102.39 L116.27 102.72 L116.63 103.06 L116.98 103.39 L117.34 103.73 L117.69 104.08 L118.03 104.42 L118.37 104.77 L118.71 105.12 L119.04 105.47 L119.37 105.83 L119.70 106.19 L120.02 106.56 L120.33 106.92 L120.64 107.30 L120.95 107.67 L121.25 108.05 L121.54 108.43 L121.83 108.82 L122.11 109.21 L122.39 109.61 L122.66 110.01 L122.92 110.41 L123.18 110.82 L123.43 111.23 L123.68 111.64 L123.92 112.06 L124.15 112.48 L124.38 112.90 L124.59 113.33 L124.81 113.76 L125.01 114.19 L125.21 114.63 L125.41 115.07 L125.59 115.51 L125.78 115.95 L125.95 116.39 L126.12 116.84 L126.29 117.28 L126.44 117.73 L126.60 118.18 L126.75 118.63 L126.89 119.08 L127.03 119.53 L127.16 119.99 L127.30 120.44 L127.42 120.89 L127.55 121.35 L127.67 121.80 L127.79 122.26 L127.90 122.71 L128.01 123.17 L128.12 123.62 L128.23 124.08 L128.34 124.54 L128.44 125.00 L128.55 125.45 L128.65 125.91 L128.75 126.37 L128.85 126.83 L128.95 127.29 L129.05 127.76 L129.14 128.22 L129.24 128.69 L129.34 129.15 L129.43 129.62 L129.52 130.09 L129.61 130.57 L129.71 131.04 L129.79 131.52 L129.88 132.00 Z" fill="none" stroke="#1B1915" stroke-width="4.16" stroke-linecap="round"/><path d="M137.80 132.00 L137.89 132.61 L137.98 133.22 L138.07 133.83 L138.15 134.45 L138.22 135.07 L138.29 135.69 L138.36 136.32 L138.41 136.95 L138.47 137.58 L138.51 138.22 L138.54 138.85 L138.57 139.49 L138.59 140.14 L138.60 140.78 L138.60 141.43 L138.59 142.07 L138.57 142.72 L138.53 143.37 L138.49 144.02 L138.43 144.67 L138.36 145.32 L138.28 145.97 L138.19 146.62 L138.08 147.26 L137.95 147.91 L137.82 148.55 L137.66 149.19 L137.50 149.82 L137.31 150.45 L137.12 151.08 L136.90 151.70 L136.67 152.31 L136.43 152.92 L136.17 153.52 L135.90 154.11 L135.61 154.70 L135.30 155.27 L134.98 155.84 L134.65 156.40 L134.30 156.95 L133.94 157.48 L133.56 158.01 L133.17 158.53 L132.77 159.03 L132.36 159.53 L131.93 160.01 L131.49 160.48 L131.04 160.94 L130.58 161.39 L130.12 161.83 L129.64 162.25 L129.15 162.66 L128.66 163.06 L128.16 163.45 L127.65 163.83 L127.13 164.20 L126.61 164.55 L126.09 164.90 L125.56 165.23 L125.02 165.55 L124.49 165.87 L123.95 166.18 L123.41 166.47 L122.86 166.76 L122.32 167.04 L121.77 167.32 L121.23 167.59 L120.68 167.85 L120.13 168.11 L119.59 168.36 L119.04 168.60 L118.50 168.85 L117.95 169.09 L117.41 169.33 L116.87 169.56 L116.33 169.79 L115.79 170.03 L115.25 170.26 L114.71 170.49 L114.17 170.72 L113.64 170.95 L113.10 171.18 L112.57 171.41 L112.03 171.64 L111.50 171.87 L110.96 172.11 L110.43 172.34 L109.89 172.58 L109.35 172.82 L108.81 173.05 L108.27 173.29 L107.73 173.53 L107.18 173.77 L106.64 174.01 L106.09 174.25 L105.53 174.49 L104.97 174.72 L104.41 174.96 L103.85 175.19 L103.28 175.42 L102.71 175.65 L102.13 175.87 L101.54 176.09 L100.96 176.30 L100.37 176.51 L99.77 176.71 L99.17 176.91 L98.56 177.09 L97.95 177.27 L97.33 177.44 L96.71 177.59 L96.09 177.74 L95.46 177.88 L94.83 178.00 L94.19 178.11 L93.55 178.21 L92.91 178.29 L92.27 178.36 L91.62 178.41 L90.97 178.45 L90.32 178.47 L89.67 178.48 L89.02 178.47 L88.37 178.44 L87.72 178.39 L87.07 178.33 L86.43 178.25 L85.78 178.15 L85.14 178.03 L84.50 177.90 L83.86 177.74 L83.23 177.57 L82.60 177.38 L81.98 177.18 L81.36 176.95 L80.75 176.71 L80.15 176.46 L79.55 176.18 L78.96 175.89 L78.38 175.58 L77.80 175.26 L77.23 174.92 L76.68 174.57 L76.12 174.20 L75.58 173.82 L75.05 173.43 L74.53 173.03 L74.01 172.61 L73.51 172.18 L73.01 171.74 L72.52 171.29 L72.05 170.83 L71.58 170.36 L71.12 169.89 L70.67 169.40 L70.23 168.91 L69.80 168.41 L69.37 167.90 L68.96 167.39 L68.55 166.87 L68.16 166.35 L67.77 165.83 L67.39 165.29 L67.01 164.76 L66.65 164.22 L66.29 163.68 L65.94 163.14 L65.59 162.59 L65.25 162.04 L64.92 161.49 L64.60 160.93 L64.28 160.38 L63.97 159.82 L63.66 159.26 L63.36 158.70 L63.07 158.14 L62.78 157.58 L62.50 157.01 L62.22 156.45 L61.95 155.88 L61.68 155.31 L61.42 154.74 L61.17 154.17 L60.92 153.59 L60.68 153.02 L60.44 152.44 L60.21 151.86 L59.99 151.28 L59.77 150.70 L59.56 150.11 L59.36 149.53 L59.16 148.94 L58.98 148.35 L58.80 147.75 L58.62 147.16 L58.46 146.56 L58.31 145.96 L58.16 145.36 L58.02 144.76 L57.90 144.16 L57.78 143.55 L57.67 142.95 L57.58 142.34 L57.49 141.73 L57.41 141.12 L57.35 140.51 L57.30 139.90 L57.25 139.28 L57.22 138.67 L57.20 138.06 L57.19 137.45 L57.19 136.84 L57.21 136.23 L57.23 135.62 L57.27 135.01 L57.32 134.40 L57.38 133.80 L57.45 133.20 L57.53 132.60 L57.62 132.00 L57.72 131.41 L57.83 130.81 L57.94 130.23 L58.07 129.64 L58.20 129.06 L58.34 128.48 L58.49 127.91 L58.64 127.34 L58.80 126.77 L58.97 126.21 L59.14 125.65 L59.31 125.09 L59.49 124.54 L59.67 123.99 L59.85 123.44 L60.04 122.89 L60.23 122.35 L60.42 121.81 L60.61 121.27 L60.81 120.74 L61.00 120.20 L61.19 119.67 L61.39 119.14 L61.58 118.61 L61.77 118.07 L61.96 117.54 L62.15 117.01 L62.34 116.47 L62.52 115.93 L62.70 115.39 L62.88 114.85 L63.06 114.31 L63.24 113.76 L63.41 113.21 L63.59 112.65 L63.76 112.09 L63.93 111.53 L64.10 110.95 L64.26 110.38 L64.43 109.80 L64.60 109.21 L64.76 108.61 L64.93 108.01 L65.10 107.41 L65.27 106.79 L65.44 106.18 L65.61 105.55 L65.79 104.92 L65.97 104.28 L66.16 103.63 L66.35 102.98 L66.54 102.33 L66.75 101.67 L66.96 101.00 L67.17 100.33 L67.40 99.66 L67.64 98.98 L67.88 98.30 L68.14 97.62 L68.40 96.94 L68.68 96.26 L68.97 95.58 L69.27 94.90 L69.58 94.22 L69.91 93.54 L70.25 92.87 L70.61 92.20 L70.98 91.54 L71.37 90.88 L71.77 90.23 L72.18 89.59 L72.61 88.96 L73.06 88.34 L73.52 87.73 L74.00 87.13 L74.49 86.55 L75.00 85.98 L75.53 85.43 L76.07 84.89 L76.62 84.37 L77.19 83.87 L77.77 83.39 L78.36 82.92 L78.97 82.48 L79.59 82.06 L80.23 81.66 L80.87 81.28 L81.53 80.92 L82.19 80.59 L82.87 80.28 L83.55 79.99 L84.25 79.73 L84.95 79.49 L85.66 79.27 L86.37 79.09 L87.09 78.92 L87.81 78.78 L88.54 78.67 L89.27 78.58 L90.01 78.51 L90.74 78.47 L91.48 78.45 L92.22 78.45 L92.96 78.48 L93.69 78.53 L94.43 78.60 L95.16 78.69 L95.89 78.80 L96.61 78.94 L97.33 79.09 L98.05 79.26 L98.76 79.45 L99.47 79.66 L100.17 79.88 L100.87 80.12 L101.56 80.38 L102.24 80.65 L102.91 80.93 L103.58 81.23 L104.24 81.53 L104.90 81.85 L105.54 82.18 L106.18 82.52 L106.81 82.87 L107.44 83.23 L108.05 83.59 L108.66 83.97 L109.26 84.34 L109.86 84.73 L110.44 85.12 L111.02 85.51 L111.59 85.91 L112.16 86.32 L112.72 86.73 L113.27 87.14 L113.81 87.55 L114.35 87.97 L114.89 88.39 L115.41 88.81 L115.93 89.24 L116.45 89.67 L116.96 90.10 L117.46 90.53 L117.96 90.96 L118.45 91.40 L118.93 91.84 L119.42 92.28 L119.89 92.72 L120.36 93.17 L120.83 93.61 L121.29 94.06 L121.74 94.52 L122.19 94.97 L122.64 95.43 L123.07 95.90 L123.51 96.36 L123.93 96.83 L124.35 97.30 L124.77 97.78 L125.18 98.26 L125.58 98.75 L125.97 99.24 L126.36 99.73 L126.74 100.22 L127.12 100.73 L127.49 101.23 L127.85 101.74 L128.20 102.25 L128.54 102.77 L128.88 103.30 L129.21 103.82 L129.53 104.35 L129.85 104.89 L130.15 105.43 L130.45 105.97 L130.74 106.51 L131.02 107.06 L131.30 107.62 L131.56 108.17 L131.82 108.73 L132.07 109.29 L132.31 109.85 L132.54 110.42 L132.77 110.99 L132.99 111.56 L133.20 112.13 L133.40 112.70 L133.60 113.28 L133.79 113.85 L133.97 114.43 L134.15 115.01 L134.32 115.59 L134.49 116.17 L134.65 116.74 L134.81 117.32 L134.96 117.90 L135.11 118.48 L135.25 119.06 L135.39 119.64 L135.52 120.23 L135.66 120.81 L135.79 121.39 L135.91 121.97 L136.04 122.55 L136.16 123.13 L136.28 123.71 L136.40 124.30 L136.52 124.88 L136.63 125.46 L136.74 126.05 L136.86 126.64 L136.97 127.23 L137.08 127.81 L137.18 128.41 L137.29 129.00 L137.40 129.59 L137.50 130.19 L137.60 130.79 L137.70 131.39 L137.80 132.00 Z" fill="none" stroke="#1B1915" stroke-width="4.29" stroke-linecap="round"/><path d="M147.13 132.00 L147.24 132.75 L147.33 133.51 L147.43 134.27 L147.51 135.04 L147.59 135.81 L147.66 136.58 L147.73 137.35 L147.79 138.13 L147.84 138.91 L147.88 139.70 L147.91 140.48 L147.93 141.27 L147.94 142.07 L147.94 142.86 L147.93 143.66 L147.90 144.46 L147.87 145.26 L147.82 146.06 L147.75 146.86 L147.68 147.66 L147.58 148.46 L147.48 149.26 L147.35 150.06 L147.21 150.85 L147.06 151.65 L146.89 152.44 L146.70 153.23 L146.49 154.01 L146.27 154.79 L146.03 155.56 L145.77 156.33 L145.49 157.09 L145.20 157.84 L144.88 158.59 L144.55 159.33 L144.21 160.06 L143.84 160.78 L143.46 161.49 L143.06 162.19 L142.64 162.88 L142.21 163.55 L141.76 164.22 L141.30 164.87 L140.82 165.51 L140.33 166.14 L139.82 166.76 L139.30 167.36 L138.76 167.95 L138.22 168.53 L137.66 169.09 L137.09 169.64 L136.51 170.18 L135.92 170.71 L135.32 171.22 L134.71 171.72 L134.10 172.20 L133.47 172.67 L132.85 173.14 L132.21 173.59 L131.57 174.02 L130.92 174.45 L130.27 174.87 L129.62 175.28 L128.96 175.68 L128.30 176.06 L127.64 176.44 L126.98 176.82 L126.31 177.18 L125.65 177.54 L124.98 177.89 L124.31 178.24 L123.64 178.58 L122.97 178.92 L122.30 179.25 L121.63 179.58 L120.96 179.91 L120.29 180.23 L119.63 180.56 L118.96 180.88 L118.29 181.19 L117.61 181.51 L116.94 181.83 L116.27 182.14 L115.60 182.46 L114.92 182.77 L114.25 183.08 L113.57 183.40 L112.89 183.71 L112.21 184.02 L111.52 184.33 L110.83 184.64 L110.14 184.95 L109.45 185.25 L108.75 185.56 L108.05 185.86 L107.34 186.16 L106.63 186.45 L105.91 186.74 L105.19 187.03 L104.46 187.31 L103.73 187.58 L102.99 187.85 L102.25 188.11 L101.50 188.36 L100.74 188.60 L99.98 188.84 L99.22 189.06 L98.45 189.27 L97.67 189.47 L96.89 189.65 L96.10 189.83 L95.31 189.98 L94.52 190.12 L93.72 190.25 L92.91 190.36 L92.11 190.45 L91.30 190.53 L90.49 190.58 L89.67 190.62 L88.86 190.64 L88.04 190.63 L87.23 190.61 L86.41 190.56 L85.60 190.50 L84.79 190.41 L83.98 190.30 L83.17 190.17 L82.36 190.02 L81.56 189.85 L80.77 189.65 L79.97 189.44 L79.19 189.20 L78.41 188.94 L77.64 188.66 L76.87 188.35 L76.11 188.03 L75.36 187.69 L74.62 187.33 L73.89 186.94 L73.17 186.54 L72.45 186.12 L71.75 185.68 L71.06 185.23 L70.38 184.76 L69.71 184.27 L69.05 183.77 L68.40 183.25 L67.76 182.72 L67.14 182.17 L66.52 181.61 L65.92 181.04 L65.33 180.46 L64.75 179.87 L64.18 179.27 L63.63 178.65 L63.08 178.03 L62.55 177.41 L62.02 176.77 L61.51 176.13 L61.01 175.48 L60.52 174.82 L60.04 174.16 L59.57 173.49 L59.11 172.82 L58.65 172.15 L58.21 171.47 L57.78 170.79 L57.35 170.10 L56.94 169.41 L56.53 168.72 L56.13 168.03 L55.74 167.33 L55.35 166.64 L54.98 165.94 L54.61 165.23 L54.25 164.53 L53.89 163.83 L53.54 163.12 L53.20 162.41 L52.87 161.70 L52.55 160.99 L52.23 160.28 L51.92 159.56 L51.62 158.85 L51.32 158.13 L51.03 157.41 L50.75 156.68 L50.48 155.96 L50.22 155.23 L49.96 154.50 L49.71 153.77 L49.48 153.04 L49.25 152.30 L49.03 151.57 L48.82 150.83 L48.62 150.08 L48.43 149.34 L48.25 148.59 L48.09 147.84 L47.93 147.09 L47.79 146.34 L47.66 145.59 L47.54 144.83 L47.43 144.08 L47.33 143.32 L47.25 142.56 L47.18 141.80 L47.12 141.04 L47.08 140.28 L47.05 139.52 L47.03 138.77 L47.03 138.01 L47.04 137.25 L47.06 136.49 L47.09 135.74 L47.14 134.99 L47.21 134.24 L47.28 133.49 L47.37 132.74 L47.47 132.00 L47.58 131.26 L47.70 130.52 L47.83 129.79 L47.97 129.06 L48.11 128.34 L48.27 127.62 L48.43 126.90 L48.61 126.18 L48.78 125.47 L48.97 124.77 L49.16 124.06 L49.36 123.36 L49.56 122.67 L49.76 121.97 L49.97 121.28 L50.18 120.60 L50.40 119.91 L50.62 119.23 L50.84 118.55 L51.06 117.87 L51.28 117.19 L51.50 116.52 L51.72 115.84 L51.95 115.16 L52.17 114.49 L52.39 113.81 L52.61 113.13 L52.83 112.45 L53.04 111.77 L53.26 111.08 L53.48 110.39 L53.69 109.70 L53.90 109.00 L54.11 108.30 L54.32 107.59 L54.53 106.88 L54.73 106.16 L54.94 105.44 L55.15 104.71 L55.35 103.97 L55.56 103.23 L55.77 102.48 L55.98 101.72 L56.19 100.95 L56.41 100.18 L56.63 99.40 L56.85 98.61 L57.08 97.82 L57.31 97.02 L57.55 96.21 L57.79 95.39 L58.05 94.57 L58.31 93.74 L58.58 92.91 L58.86 92.07 L59.15 91.23 L59.46 90.39 L59.77 89.54 L60.10 88.69 L60.44 87.84 L60.80 86.98 L61.17 86.13 L61.56 85.28 L61.96 84.44 L62.38 83.59 L62.81 82.75 L63.26 81.92 L63.74 81.09 L64.22 80.27 L64.73 79.46 L65.26 78.66 L65.80 77.87 L66.37 77.09 L66.95 76.33 L67.55 75.58 L68.17 74.85 L68.81 74.13 L69.47 73.44 L70.14 72.76 L70.84 72.10 L71.55 71.46 L72.28 70.85 L73.02 70.26 L73.79 69.69 L74.56 69.15 L75.36 68.63 L76.16 68.14 L76.99 67.68 L77.82 67.24 L78.67 66.84 L79.52 66.46 L80.39 66.11 L81.27 65.79 L82.16 65.50 L83.06 65.24 L83.96 65.01 L84.87 64.81 L85.79 64.64 L86.71 64.50 L87.63 64.39 L88.56 64.31 L89.49 64.26 L90.42 64.24 L91.35 64.24 L92.28 64.28 L93.20 64.34 L94.13 64.43 L95.05 64.54 L95.97 64.69 L96.89 64.85 L97.80 65.04 L98.70 65.26 L99.60 65.49 L100.50 65.75 L101.38 66.03 L102.26 66.33 L103.13 66.65 L103.99 66.99 L104.85 67.34 L105.69 67.72 L106.53 68.10 L107.35 68.51 L108.17 68.92 L108.98 69.35 L109.78 69.79 L110.57 70.25 L111.34 70.71 L112.11 71.19 L112.87 71.67 L113.62 72.16 L114.36 72.66 L115.09 73.17 L115.82 73.69 L116.53 74.21 L117.23 74.73 L117.93 75.27 L118.61 75.81 L119.29 76.35 L119.96 76.90 L120.62 77.45 L121.27 78.01 L121.91 78.57 L122.54 79.13 L123.17 79.70 L123.79 80.27 L124.40 80.84 L125.01 81.42 L125.60 82.00 L126.19 82.59 L126.77 83.18 L127.34 83.77 L127.91 84.37 L128.46 84.97 L129.01 85.57 L129.55 86.18 L130.09 86.79 L130.61 87.41 L131.13 88.03 L131.64 88.66 L132.14 89.29 L132.63 89.92 L133.11 90.56 L133.58 91.20 L134.05 91.85 L134.50 92.50 L134.95 93.16 L135.39 93.82 L135.81 94.49 L136.23 95.16 L136.64 95.83 L137.04 96.51 L137.42 97.20 L137.80 97.88 L138.17 98.58 L138.53 99.27 L138.87 99.97 L139.21 100.67 L139.54 101.38 L139.86 102.09 L140.16 102.80 L140.46 103.51 L140.75 104.23 L141.03 104.95 L141.30 105.67 L141.56 106.39 L141.81 107.11 L142.05 107.84 L142.28 108.57 L142.51 109.29 L142.73 110.02 L142.94 110.75 L143.14 111.48 L143.34 112.21 L143.53 112.93 L143.71 113.66 L143.89 114.39 L144.06 115.12 L144.23 115.85 L144.39 116.58 L144.55 117.31 L144.70 118.03 L144.86 118.76 L145.00 119.49 L145.15 120.22 L145.29 120.95 L145.43 121.67 L145.56 122.40 L145.70 123.13 L145.83 123.86 L145.96 124.59 L146.08 125.32 L146.21 126.06 L146.33 126.79 L146.45 127.53 L146.57 128.27 L146.69 129.01 L146.80 129.75 L146.92 130.50 L147.03 131.25 L147.13 132.00 Z" fill="none" stroke="#1B1915" stroke-width="4.42" stroke-linecap="round"/><path d="M158.00 132.00 L158.11 132.92 L158.21 133.85 L158.31 134.78 L158.40 135.72 L158.48 136.66 L158.56 137.60 L158.62 138.55 L158.68 139.50 L158.73 140.45 L158.76 141.41 L158.79 142.37 L158.80 143.33 L158.80 144.30 L158.79 145.26 L158.76 146.23 L158.72 147.21 L158.66 148.18 L158.59 149.15 L158.51 150.13 L158.40 151.10 L158.28 152.08 L158.15 153.05 L157.99 154.02 L157.82 154.99 L157.63 155.96 L157.41 156.92 L157.18 157.89 L156.93 158.84 L156.66 159.79 L156.37 160.74 L156.06 161.67 L155.73 162.61 L155.38 163.53 L155.00 164.44 L154.61 165.35 L154.20 166.25 L153.77 167.13 L153.31 168.01 L152.84 168.87 L152.35 169.72 L151.84 170.56 L151.31 171.39 L150.76 172.20 L150.19 173.00 L149.61 173.79 L149.01 174.56 L148.40 175.32 L147.77 176.06 L147.12 176.79 L146.46 177.51 L145.79 178.21 L145.11 178.89 L144.41 179.56 L143.70 180.22 L142.98 180.86 L142.25 181.49 L141.51 182.10 L140.76 182.70 L140.01 183.29 L139.25 183.87 L138.48 184.43 L137.70 184.98 L136.92 185.52 L136.14 186.05 L135.35 186.56 L134.55 187.07 L133.75 187.57 L132.95 188.06 L132.15 188.54 L131.34 189.02 L130.53 189.48 L129.72 189.94 L128.91 190.40 L128.09 190.85 L127.28 191.29 L126.46 191.73 L125.64 192.16 L124.82 192.60 L124.00 193.02 L123.17 193.45 L122.34 193.87 L121.51 194.29 L120.68 194.70 L119.85 195.12 L119.01 195.53 L118.17 195.94 L117.33 196.34 L116.48 196.74 L115.63 197.14 L114.77 197.54 L113.91 197.93 L113.05 198.32 L112.18 198.71 L111.30 199.09 L110.42 199.46 L109.53 199.83 L108.64 200.19 L107.74 200.55 L106.84 200.89 L105.92 201.23 L105.01 201.56 L104.08 201.88 L103.15 202.18 L102.21 202.48 L101.26 202.76 L100.31 203.03 L99.35 203.28 L98.39 203.52 L97.42 203.74 L96.44 203.94 L95.46 204.13 L94.48 204.29 L93.49 204.44 L92.49 204.57 L91.49 204.67 L90.49 204.76 L89.49 204.82 L88.48 204.85 L87.48 204.87 L86.47 204.86 L85.46 204.82 L84.45 204.76 L83.45 204.68 L82.44 204.56 L81.44 204.43 L80.44 204.26 L79.45 204.07 L78.46 203.86 L77.47 203.61 L76.49 203.34 L75.52 203.05 L74.56 202.73 L73.60 202.38 L72.65 202.01 L71.72 201.62 L70.79 201.19 L69.87 200.75 L68.96 200.28 L68.07 199.79 L67.18 199.28 L66.31 198.74 L65.45 198.19 L64.61 197.61 L63.77 197.01 L62.95 196.40 L62.15 195.77 L61.36 195.12 L60.58 194.45 L59.82 193.77 L59.07 193.07 L58.33 192.36 L57.61 191.63 L56.90 190.90 L56.21 190.15 L55.53 189.39 L54.86 188.62 L54.21 187.84 L53.57 187.05 L52.95 186.25 L52.34 185.45 L51.74 184.64 L51.15 183.82 L50.58 183.00 L50.01 182.17 L49.46 181.33 L48.92 180.49 L48.39 179.65 L47.88 178.80 L47.37 177.96 L46.87 177.10 L46.39 176.25 L45.91 175.39 L45.44 174.53 L44.99 173.67 L44.54 172.80 L44.10 171.93 L43.67 171.06 L43.25 170.19 L42.84 169.32 L42.44 168.44 L42.04 167.57 L41.66 166.69 L41.28 165.81 L40.92 164.92 L40.56 164.04 L40.22 163.15 L39.88 162.26 L39.55 161.37 L39.23 160.48 L38.93 159.58 L38.63 158.68 L38.34 157.78 L38.07 156.88 L37.80 155.97 L37.55 155.06 L37.31 154.15 L37.09 153.24 L36.87 152.32 L36.67 151.41 L36.48 150.49 L36.30 149.57 L36.14 148.64 L36.00 147.72 L35.86 146.79 L35.74 145.86 L35.64 144.94 L35.55 144.01 L35.48 143.08 L35.42 142.15 L35.38 141.22 L35.35 140.29 L35.34 139.36 L35.34 138.43 L35.36 137.51 L35.39 136.58 L35.44 135.66 L35.51 134.74 L35.59 133.83 L35.68 132.91 L35.79 132.00 L35.91 131.09 L36.04 130.19 L36.18 129.29 L36.34 128.39 L36.50 127.50 L36.67 126.61 L36.85 125.72 L37.04 124.84 L37.24 123.97 L37.45 123.09 L37.66 122.22 L37.88 121.36 L38.11 120.50 L38.34 119.64 L38.57 118.78 L38.81 117.93 L39.05 117.08 L39.30 116.23 L39.55 115.38 L39.80 114.54 L40.05 113.69 L40.31 112.85 L40.56 112.00 L40.82 111.16 L41.07 110.31 L41.33 109.47 L41.58 108.62 L41.83 107.77 L42.09 106.91 L42.34 106.06 L42.59 105.19 L42.84 104.33 L43.09 103.46 L43.34 102.58 L43.59 101.70 L43.84 100.81 L44.09 99.91 L44.34 99.01 L44.59 98.10 L44.85 97.18 L45.10 96.26 L45.36 95.32 L45.62 94.38 L45.88 93.43 L46.15 92.47 L46.42 91.50 L46.70 90.52 L46.99 89.54 L47.28 88.55 L47.58 87.54 L47.89 86.54 L48.21 85.52 L48.55 84.50 L48.89 83.47 L49.24 82.44 L49.61 81.40 L50.00 80.36 L50.39 79.32 L50.81 78.27 L51.24 77.22 L51.69 76.17 L52.15 75.12 L52.64 74.08 L53.14 73.04 L53.67 72.00 L54.21 70.96 L54.78 69.94 L55.36 68.92 L55.97 67.91 L56.60 66.91 L57.26 65.92 L57.94 64.95 L58.64 63.99 L59.36 63.04 L60.10 62.12 L60.87 61.21 L61.66 60.32 L62.48 59.46 L63.31 58.61 L64.17 57.79 L65.05 57.00 L65.95 56.23 L66.87 55.49 L67.81 54.78 L68.77 54.10 L69.75 53.44 L70.75 52.82 L71.76 52.23 L72.79 51.68 L73.84 51.16 L74.90 50.67 L75.97 50.21 L77.06 49.80 L78.15 49.42 L79.26 49.07 L80.38 48.76 L81.51 48.49 L82.64 48.25 L83.78 48.05 L84.93 47.89 L86.08 47.76 L87.23 47.67 L88.38 47.61 L89.54 47.59 L90.70 47.61 L91.85 47.65 L93.00 47.74 L94.15 47.85 L95.30 48.00 L96.44 48.18 L97.58 48.39 L98.71 48.63 L99.84 48.90 L100.95 49.19 L102.06 49.52 L103.16 49.87 L104.25 50.25 L105.33 50.64 L106.41 51.07 L107.47 51.51 L108.52 51.98 L109.55 52.46 L110.58 52.97 L111.59 53.49 L112.60 54.03 L113.59 54.59 L114.57 55.16 L115.53 55.75 L116.49 56.35 L117.43 56.96 L118.36 57.58 L119.28 58.22 L120.18 58.86 L121.07 59.52 L121.95 60.18 L122.82 60.86 L123.68 61.54 L124.53 62.23 L125.36 62.92 L126.18 63.62 L126.99 64.33 L127.79 65.05 L128.58 65.77 L129.36 66.50 L130.13 67.23 L130.88 67.96 L131.63 68.71 L132.37 69.45 L133.09 70.21 L133.80 70.96 L134.51 71.73 L135.20 72.49 L135.88 73.26 L136.55 74.04 L137.21 74.82 L137.86 75.61 L138.50 76.40 L139.12 77.20 L139.74 78.00 L140.34 78.80 L140.94 79.61 L141.52 80.43 L142.09 81.25 L142.65 82.08 L143.20 82.91 L143.73 83.75 L144.26 84.59 L144.77 85.43 L145.27 86.28 L145.75 87.14 L146.23 88.00 L146.69 88.86 L147.14 89.73 L147.57 90.60 L148.00 91.48 L148.41 92.36 L148.81 93.24 L149.20 94.12 L149.57 95.01 L149.94 95.90 L150.29 96.80 L150.63 97.69 L150.96 98.59 L151.27 99.49 L151.58 100.39 L151.88 101.29 L152.16 102.19 L152.44 103.09 L152.70 104.00 L152.96 104.90 L153.20 105.80 L153.44 106.71 L153.67 107.61 L153.89 108.51 L154.11 109.42 L154.32 110.32 L154.52 111.22 L154.71 112.12 L154.90 113.02 L155.08 113.92 L155.26 114.82 L155.44 115.72 L155.60 116.62 L155.77 117.51 L155.93 118.41 L156.09 119.31 L156.24 120.21 L156.40 121.11 L156.54 122.01 L156.69 122.90 L156.83 123.81 L156.97 124.71 L157.11 125.61 L157.25 126.52 L157.38 127.42 L157.51 128.33 L157.64 129.25 L157.76 130.16 L157.88 131.08 L158.00 132.00 Z" fill="none" stroke="#1B1915" stroke-width="4.55" stroke-linecap="round"/><path d="M170.48 132.00 L170.61 133.12 L170.72 134.24 L170.82 135.37 L170.91 136.50 L171.00 137.63 L171.07 138.77 L171.14 139.91 L171.19 141.06 L171.23 142.21 L171.26 143.36 L171.28 144.52 L171.28 145.68 L171.26 146.84 L171.24 148.01 L171.19 149.17 L171.13 150.34 L171.05 151.52 L170.96 152.69 L170.85 153.86 L170.71 155.04 L170.56 156.21 L170.39 157.38 L170.20 158.55 L169.99 159.72 L169.75 160.88 L169.50 162.05 L169.22 163.20 L168.92 164.36 L168.59 165.50 L168.24 166.64 L167.87 167.78 L167.48 168.90 L167.06 170.02 L166.62 171.13 L166.16 172.23 L165.67 173.31 L165.16 174.39 L164.63 175.46 L164.08 176.51 L163.50 177.55 L162.90 178.57 L162.28 179.59 L161.64 180.59 L160.98 181.57 L160.30 182.54 L159.59 183.49 L158.87 184.43 L158.14 185.35 L157.38 186.25 L156.61 187.14 L155.82 188.02 L155.02 188.87 L154.20 189.72 L153.37 190.54 L152.52 191.35 L151.67 192.14 L150.80 192.92 L149.92 193.69 L149.03 194.43 L148.13 195.17 L147.22 195.89 L146.30 196.60 L145.38 197.29 L144.45 197.97 L143.51 198.64 L142.57 199.30 L141.62 199.94 L140.66 200.58 L139.70 201.21 L138.74 201.83 L137.77 202.43 L136.80 203.03 L135.82 203.63 L134.84 204.21 L133.85 204.79 L132.87 205.36 L131.87 205.93 L130.88 206.49 L129.88 207.04 L128.88 207.59 L127.87 208.14 L126.86 208.68 L125.85 209.21 L124.83 209.74 L123.80 210.26 L122.77 210.78 L121.74 211.30 L120.70 211.81 L119.65 212.31 L118.60 212.81 L117.54 213.30 L116.47 213.78 L115.40 214.26 L114.32 214.73 L113.23 215.18 L112.14 215.63 L111.04 216.07 L109.93 216.50 L108.81 216.92 L107.68 217.32 L106.55 217.71 L105.41 218.08 L104.26 218.44 L103.10 218.78 L101.93 219.11 L100.76 219.42 L99.58 219.70 L98.39 219.97 L97.20 220.21 L96.00 220.44 L94.79 220.63 L93.58 220.81 L92.37 220.96 L91.15 221.08 L89.93 221.18 L88.70 221.25 L87.47 221.29 L86.24 221.31 L85.01 221.29 L83.78 221.25 L82.55 221.17 L81.32 221.06 L80.09 220.93 L78.87 220.76 L77.65 220.56 L76.44 220.33 L75.23 220.07 L74.03 219.77 L72.83 219.45 L71.65 219.09 L70.47 218.70 L69.30 218.29 L68.14 217.84 L66.99 217.36 L65.86 216.86 L64.73 216.32 L63.62 215.76 L62.53 215.17 L61.44 214.55 L60.38 213.90 L59.32 213.23 L58.29 212.54 L57.26 211.82 L56.26 211.08 L55.27 210.32 L54.30 209.54 L53.34 208.74 L52.40 207.91 L51.48 207.07 L50.58 206.21 L49.69 205.34 L48.82 204.45 L47.97 203.55 L47.13 202.63 L46.31 201.70 L45.51 200.76 L44.72 199.80 L43.95 198.84 L43.20 197.86 L42.46 196.88 L41.73 195.89 L41.03 194.89 L40.33 193.89 L39.66 192.88 L38.99 191.86 L38.34 190.84 L37.70 189.81 L37.08 188.78 L36.47 187.74 L35.87 186.70 L35.29 185.66 L34.72 184.62 L34.16 183.57 L33.61 182.52 L33.07 181.46 L32.54 180.41 L32.03 179.35 L31.53 178.29 L31.03 177.23 L30.55 176.16 L30.08 175.10 L29.62 174.03 L29.18 172.96 L28.74 171.88 L28.31 170.81 L27.90 169.73 L27.50 168.65 L27.11 167.57 L26.73 166.48 L26.36 165.39 L26.01 164.30 L25.67 163.21 L25.34 162.11 L25.03 161.01 L24.73 159.91 L24.44 158.81 L24.17 157.70 L23.91 156.59 L23.67 155.48 L23.45 154.37 L23.23 153.25 L23.04 152.14 L22.86 151.02 L22.70 149.90 L22.56 148.78 L22.43 147.65 L22.32 146.53 L22.23 145.41 L22.15 144.28 L22.09 143.16 L22.05 142.03 L22.03 140.91 L22.03 139.79 L22.04 138.67 L22.07 137.55 L22.12 136.44 L22.19 135.32 L22.27 134.21 L22.37 133.10 L22.48 132.00 L22.62 130.90 L22.76 129.80 L22.91 128.71 L23.08 127.62 L23.26 126.54 L23.45 125.46 L23.65 124.38 L23.86 123.31 L24.08 122.24 L24.31 121.18 L24.55 120.12 L24.79 119.06 L25.04 118.01 L25.30 116.96 L25.56 115.91 L25.83 114.87 L26.10 113.82 L26.38 112.78 L26.66 111.75 L26.94 110.71 L27.22 109.67 L27.51 108.63 L27.80 107.60 L28.09 106.56 L28.38 105.52 L28.67 104.48 L28.97 103.43 L29.26 102.39 L29.55 101.33 L29.85 100.28 L30.14 99.22 L30.43 98.15 L30.73 97.08 L31.02 96.00 L31.32 94.92 L31.61 93.82 L31.91 92.72 L32.21 91.61 L32.51 90.49 L32.82 89.37 L33.13 88.23 L33.44 87.08 L33.76 85.93 L34.08 84.76 L34.41 83.59 L34.74 82.40 L35.09 81.21 L35.44 80.00 L35.80 78.79 L36.18 77.57 L36.56 76.34 L36.96 75.10 L37.37 73.86 L37.80 72.61 L38.24 71.35 L38.69 70.09 L39.17 68.82 L39.66 67.55 L40.18 66.27 L40.71 65.00 L41.26 63.73 L41.84 62.45 L42.44 61.18 L43.06 59.91 L43.71 58.65 L44.38 57.39 L45.07 56.14 L45.79 54.91 L46.54 53.68 L47.32 52.46 L48.12 51.26 L48.95 50.07 L49.80 48.90 L50.69 47.75 L51.60 46.62 L52.54 45.51 L53.50 44.42 L54.50 43.36 L55.51 42.33 L56.56 41.32 L57.63 40.35 L58.73 39.40 L59.85 38.48 L61.00 37.60 L62.17 36.76 L63.36 35.95 L64.57 35.17 L65.81 34.44 L67.06 33.74 L68.34 33.08 L69.63 32.47 L70.94 31.89 L72.26 31.36 L73.60 30.87 L74.96 30.43 L76.32 30.02 L77.70 29.66 L79.08 29.35 L80.47 29.07 L81.87 28.85 L83.28 28.66 L84.69 28.52 L86.11 28.42 L87.52 28.37 L88.94 28.36 L90.36 28.39 L91.77 28.46 L93.19 28.57 L94.60 28.72 L96.00 28.92 L97.40 29.15 L98.79 29.41 L100.18 29.72 L101.55 30.06 L102.92 30.43 L104.28 30.84 L105.62 31.27 L106.96 31.74 L108.28 32.24 L109.59 32.77 L110.88 33.33 L112.17 33.91 L113.44 34.52 L114.69 35.15 L115.93 35.80 L117.16 36.47 L118.37 37.17 L119.56 37.89 L120.74 38.62 L121.90 39.37 L123.05 40.14 L124.19 40.92 L125.30 41.71 L126.40 42.53 L127.49 43.35 L128.56 44.18 L129.62 45.03 L130.66 45.89 L131.68 46.76 L132.69 47.63 L133.69 48.52 L134.67 49.42 L135.64 50.32 L136.59 51.23 L137.52 52.15 L138.45 53.08 L139.36 54.01 L140.25 54.95 L141.13 55.90 L142.00 56.85 L142.85 57.81 L143.69 58.78 L144.51 59.75 L145.32 60.72 L146.11 61.71 L146.90 62.70 L147.66 63.69 L148.42 64.69 L149.15 65.70 L149.88 66.71 L150.59 67.73 L151.28 68.75 L151.96 69.78 L152.63 70.82 L153.28 71.86 L153.91 72.90 L154.54 73.95 L155.14 75.01 L155.73 76.07 L156.31 77.13 L156.87 78.20 L157.41 79.27 L157.94 80.35 L158.46 81.43 L158.96 82.51 L159.44 83.60 L159.91 84.69 L160.37 85.79 L160.81 86.88 L161.23 87.98 L161.64 89.08 L162.04 90.18 L162.43 91.29 L162.80 92.39 L163.16 93.50 L163.50 94.60 L163.83 95.71 L164.15 96.82 L164.46 97.92 L164.76 99.03 L165.05 100.13 L165.32 101.24 L165.59 102.34 L165.85 103.45 L166.10 104.55 L166.34 105.65 L166.57 106.75 L166.79 107.85 L167.01 108.95 L167.22 110.04 L167.43 111.14 L167.62 112.23 L167.82 113.33 L168.01 114.42 L168.19 115.51 L168.37 116.60 L168.54 117.70 L168.71 118.79 L168.88 119.88 L169.04 120.97 L169.20 122.07 L169.36 123.16 L169.51 124.26 L169.66 125.36 L169.81 126.46 L169.95 127.56 L170.09 128.67 L170.23 129.77 L170.36 130.89 L170.48 132.00 Z" fill="none" stroke="#1B1915" stroke-width="4.68" stroke-linecap="round"/></svg>